# xmcd CD database file
#
# Track frame offsets:
#	150
#	17221
#	37823
#	47769
#	66407
#	80389
#	107002
#	119900
#	142294
#	154288
#	169871
#	176268
#	189638
#
# Disc length: 3066 seconds
#
# Revision: 0
# Processed by: cddbd v1.5.2PL0 Copyright (c) Steve Scherf et al.
# Submitted via: CDex 1.70beta2
#
DISCID=b90bf80d
DTITLE=Tim Branston - Slidin' Down the Nine
DYEAR=1900
DGENRE=Blues
TTITLE0=Slidin' Down the Nine
TTITLE1=Unp North Whistle
TTITLE2=Big Leg Mama
TTITLE3=Officer Zamora
TTITLE4=Tired and Hungry
TTITLE5=Whisky Bottle Blues
TTITLE6=Bootleg Blues
TTITLE7=Judgement Day
TTITLE8=Right from Wrong
TTITLE9=Boss Cat
TTITLE10=Song for Tiggy
TTITLE11=Mr Mead Lux Lewis
TTITLE12=Cloven Hoof Christian
EXTD=
EXTT0=
EXTT1=
EXTT2=
EXTT3=
EXTT4=
EXTT5=
EXTT6=
EXTT7=
EXTT8=
EXTT9=
EXTT10=
EXTT11=
EXTT12=
PLAYORDER=
